<svg width="128" height="40" viewBox="0 0 128 40" fill="none" xmlns="http://www.w3.org/2000/svg">
<g opacity="0.6">
<path d="M96.721 15.4408C96.0736 14.8304 95.2964 14.3747 94.4107 14.0855C93.5277 13.7974 92.1766 13.6572 90.2804 13.6572H87.1965V27.1645H91.6785C93.4492 27.1645 94.8258 26.8735 95.7701 26.3C96.7155 25.7255 97.4542 24.9177 97.9659 23.9005C98.4724 22.8939 98.7293 21.8078 98.7293 20.6732C98.7293 19.5494 98.5563 18.541 98.2151 17.6755C97.8708 16.803 97.3681 16.0511 96.721 15.4408ZM96.5112 20.5331C96.5112 21.2971 96.3883 21.9763 96.146 22.5527C95.9067 23.1216 95.554 23.609 95.0977 24.002C94.6439 24.3926 94.1022 24.6603 93.4875 24.7981C92.8419 24.9429 91.7806 25.0164 90.3328 25.0164H89.3622V15.8402H89.7735C91.1784 15.8402 92.2673 15.9115 93.01 16.0525C93.7197 16.1871 94.3452 16.458 94.8691 16.8589C95.389 17.2565 95.7961 17.7802 96.0791 18.4153C96.3659 19.0591 96.5112 19.7719 96.5112 20.5331Z" fill="#0D0C12"/>
<path d="M115.439 13.6377H113.362V17.0519H111.786V18.967H113.362V25.2117C113.362 25.8722 113.525 26.3728 113.845 26.7005C114.168 27.0305 114.651 27.1976 115.281 27.1976C115.582 27.1976 116 27.152 116.561 27.0591L116.847 27.0113V25.1871H115.7C115.574 25.1871 115.493 25.1809 115.446 25.1773C115.442 25.1429 115.439 25.0947 115.439 25.0273V18.967H117.25V17.0519H115.439V13.6377Z" fill="#0D0C12"/>
<path d="M49.2423 13.6504L44.4518 23.382L39.6279 13.6504H38.7261L36.8015 27.1966H38.9825L40.0593 19.2467L44.0027 27.1966H44.9036L48.7954 19.3186L49.8711 27.1966H52.0875L50.1443 13.6504H49.2423Z" fill="#0D0C12"/>
<path d="M61.1428 18.1326C60.3039 17.3993 59.3113 17.0283 58.1823 17.0283C56.7846 17.0283 55.5836 17.5299 54.6127 18.5186C53.6431 19.5055 53.1514 20.7079 53.1514 22.0921C53.1514 23.4755 53.6396 24.6823 54.6023 25.6797C55.5683 26.6811 56.7478 27.1888 58.1084 27.1888C59.224 27.1888 60.2417 26.8016 61.1428 26.0359V27.1978L63.1475 27.1888V17.0521H61.1428V18.1326ZM60.334 19.9098C60.9225 20.5134 61.2086 21.2432 61.2086 22.1412C61.2086 23.0379 60.9182 23.7642 60.3204 24.3617C59.723 24.9596 59.0316 25.25 58.207 25.25C57.374 25.25 56.6789 24.9478 56.0819 24.3253C55.4811 23.6998 55.1891 22.9827 55.1891 22.1333C55.1891 21.2826 55.4764 20.5647 56.0674 19.9387C56.6532 19.3184 57.3504 19.0166 58.1988 19.0166C59.0493 19.0166 59.7478 19.3088 60.334 19.9098Z" fill="#0D0C12"/>
<path d="M83.3706 18.1326C82.5317 17.3993 81.5391 17.0283 80.4101 17.0283C79.0124 17.0283 77.8114 17.5299 76.8405 18.5186C75.8709 19.5055 75.3792 20.7079 75.3792 22.0921C75.3792 23.4755 75.8674 24.6823 76.8301 25.6797C77.7961 26.6811 78.9756 27.1888 80.3362 27.1888C81.4518 27.1888 82.4695 26.8016 83.3706 26.0359V27.1978L85.3753 27.1888V17.0521H83.3706V18.1326ZM82.5618 19.9098C83.1503 20.5134 83.4364 21.2432 83.4364 22.1412C83.4364 23.0379 83.1459 23.7642 82.5482 24.3617C81.9507 24.9596 81.2594 25.25 80.4348 25.25C79.6018 25.25 78.9066 24.9478 78.3097 24.3253C77.7089 23.6998 77.4168 22.9827 77.4168 22.1333C77.4168 21.2826 77.7042 20.5647 78.2952 19.9387C78.881 19.3184 79.5782 19.0166 80.4266 19.0166C81.2771 19.0166 81.9756 19.3088 82.5618 19.9098Z" fill="#0D0C12"/>
<path d="M108.057 18.1326C107.218 17.3993 106.225 17.0283 105.096 17.0283C103.699 17.0283 102.498 17.5299 101.527 18.5186C100.557 19.5055 100.065 20.7079 100.065 22.0921C100.065 23.4755 100.554 24.6823 101.516 25.6797C102.482 26.6811 103.662 27.1888 105.022 27.1888C106.138 27.1888 107.156 26.8016 108.057 26.0359V27.1978L110.062 27.1888V17.0521H108.057V18.1326ZM107.248 19.9098C107.837 20.5134 108.123 21.2432 108.123 22.1412C108.123 23.0379 107.832 23.7642 107.235 24.3617C106.637 24.9596 105.946 25.25 105.121 25.25C104.288 25.25 103.593 24.9478 102.996 24.3253C102.395 23.6998 102.103 22.9827 102.103 22.1333C102.103 21.2826 102.39 20.5647 102.982 19.9387C103.567 19.3184 104.264 19.0166 105.113 19.0166C105.963 19.0166 106.662 19.3088 107.248 19.9098Z" fill="#0D0C12"/>
<path d="M125.995 18.1326C125.156 17.3993 124.164 17.0283 123.035 17.0283C121.637 17.0283 120.436 17.5299 119.465 18.5186C118.496 19.5055 118.004 20.7079 118.004 22.0921C118.004 23.4755 118.492 24.6823 119.455 25.6797C120.421 26.6811 121.6 27.1888 122.961 27.1888C124.077 27.1888 125.094 26.8016 125.995 26.0359V27.1978L128 27.1888V17.0521H125.995V18.1326ZM125.187 19.9098C125.775 20.5134 126.061 21.2432 126.061 22.1412C126.061 23.0379 125.771 23.7642 125.173 24.3617C124.575 24.9596 123.884 25.25 123.06 25.25C122.227 25.25 121.531 24.9478 120.934 24.3253C120.334 23.6998 120.042 22.9827 120.042 22.1333C120.042 21.2826 120.329 20.5647 120.92 19.9387C121.506 19.3184 122.203 19.0166 123.051 19.0166C123.902 19.0166 124.6 19.3088 125.187 19.9098Z" fill="#0D0C12"/>
<path d="M69.9158 23.4507L67.0452 17.0518H64.8103L68.7865 26.0118L66.838 30.4654H69.0727L74.9433 17.0518H72.6903L69.9158 23.4507Z" fill="#0D0C12"/>
<path d="M10.6921 16.8435V29.7928C10.6921 30.1227 10.8684 30.3769 11.1544 30.5413L17.4774 34.251C17.7619 34.4146 18.1119 34.4457 18.3964 34.2821L24.7181 30.5525C25.0048 30.3877 25.1816 30.1236 25.1816 29.7928V16.832L17.9369 21.1446L10.6921 16.8435Z" fill="#0D0C12"/>
<path d="M8.55065 28.4385V15.9382C8.55065 15.7471 8.59887 15.5057 8.97245 15.3208L17.6736 10.1421C17.8368 10.0492 18.0369 10.0492 18.2001 10.1421L27.0638 15.4167C27.2298 15.5113 27.3263 15.5732 27.323 15.7907L27.323 28.4385C27.323 28.7008 27.6126 28.8244 27.842 28.6972L29.6237 27.6391C29.7927 27.5454 29.8736 27.4042 29.8736 27.2109V14.2721C29.8736 14.0441 29.7974 13.9661 29.6336 13.8709L18.2031 7.07193C18.0384 6.97627 17.8352 6.97601 17.6702 7.07124L6.26149 13.8641C6.09698 13.9591 6 14.1211 6 14.3111V27.2109C6 27.3973 6.07858 27.5364 6.23825 27.6326L8.03742 28.7008C8.26701 28.8391 8.55065 28.7065 8.55065 28.4385Z" fill="#0D0C12"/>
<path d="M23.1 15.6297L17.9369 12.5645L12.7737 15.6297L17.9369 18.695L23.1 15.6297Z" fill="#0D0C12"/>
</g>
</svg>
